<svg width="509" height="508" viewBox="0 0 509 508" fill="none" xmlns="http://www.w3.org/2000/svg">
<path d="M366.344 16.425L316.244 66.525L441.544 191.825L491.644 141.725C513.544 119.825 513.544 84.425 491.644 62.525L445.544 16.425C423.644 -5.475 388.244 -5.475 366.344 16.425ZM277.144 95.325L276.644 95.425L132.544 138.625C112.644 144.625 96.844 159.825 90.244 179.625L1.64397 443.925C-1.25603 452.625 -0.256031 462.125 4.14397 469.925L159.544 314.525C158.444 310.525 157.944 306.425 157.944 302.125C157.944 275.625 179.444 254.125 205.944 254.125C232.444 254.125 253.944 275.625 253.944 302.125C253.944 328.625 232.444 350.125 205.944 350.125C201.644 350.125 197.444 349.525 193.544 348.525L38.144 503.825C45.944 508.225 55.344 509.225 64.144 506.325L328.444 417.725C348.144 411.125 363.444 395.325 369.444 375.425L412.644 231.325L412.744 230.825L277.244 95.325H277.144Z" fill="white"/>
</svg>
