<svg width="356" height="512" viewBox="0 0 356 512" fill="none" xmlns="http://www.w3.org/2000/svg">
<path d="M0 95.8C0 42.9 42.9 0 95.8 0H260.2C313.1 0 356 42.9 356 95.8C356 129.3 338.8 158.8 312.8 175.9C338.8 193 356 222.5 356 256C356 308.9 313.1 351.8 260.2 351.8H258.1C233.3 351.8 210.7 342.4 193.7 326.9V415.2C193.7 468.8 149.7 512 96.3 512C43.5 512 0 469.2 0 416.2C0 382.7 17.2 353.2 43.2 336.1C17.2 319 0 289.5 0 256C0 222.5 17.2 193 43.2 175.9C17.2 158.8 0 129.3 0 95.8ZM162.3 191.6H95.8C60.2 191.6 31.4 220.4 31.4 256C31.4 291.4 60 320.2 95.4 320.4H162.3V191.6ZM193.7 256C193.7 291.6 222.5 320.4 258.1 320.4H260.2C295.8 320.4 324.6 291.6 324.6 256C324.6 220.4 295.8 191.6 260.2 191.6H258.1C222.5 191.6 193.7 220.4 193.7 256ZM95.8 351.8H95.4C60 352 31.4 380.8 31.4 416.2C31.4 451.6 60.6 480.6 96.3 480.6C132.6 480.6 162.3 451.2 162.3 415.1V351.7H95.8V351.8ZM95.8 31.4C60.2 31.4 31.4 60.2 31.4 95.8C31.4 131.4 60.2 160.2 95.8 160.2H162.3V31.4H95.8ZM193.7 160.2H260.2C295.8 160.2 324.6 131.4 324.6 95.8C324.6 60.2 295.8 31.4 260.2 31.4H193.7V160.2Z" fill="white"/>
</svg>
