<svg width="378" height="512" viewBox="0 0 378 512" fill="none" xmlns="http://www.w3.org/2000/svg">
<path d="M274.844 312.9C284.644 306.2 298.244 300.4 298.244 300.4C298.244 300.4 259.544 307.4 221.044 310.6C173.944 314.5 123.344 315.3 97.9443 311.9C37.8443 303.9 130.944 281.8 130.944 281.8C130.944 281.8 94.8443 279.4 50.3443 300.8C-2.15565 326.2 180.344 337.8 274.844 312.9ZM189.444 280.8C170.444 238.1 106.344 200.6 189.444 135C293.144 53.2 239.944 0 239.944 0C261.444 84.5 164.344 110.1 129.244 162.6C105.344 198.5 140.944 237 189.444 280.8ZM304.044 104.6C304.144 104.6 128.844 148.4 212.544 244.8C237.244 273.2 206.044 298.8 206.044 298.8C206.044 298.8 268.744 266.4 239.944 225.9C213.044 188.1 192.444 169.3 304.044 104.6ZM297.944 375.1C297.444 376.1 296.744 376.9 295.944 377.7C424.244 344 377.044 258.8 315.744 280.4C312.444 281.6 309.544 283.8 307.544 286.7C311.144 285.4 314.844 284.4 318.544 283.7C349.544 277.2 394.044 325.2 297.944 375.1ZM345.044 437.4C345.044 437.4 359.544 449.3 329.144 458.6C271.244 476.1 88.3443 481.4 37.5443 459.3C19.2443 451.4 53.5443 440.3 64.3443 438C75.5443 435.6 82.0443 436 82.0443 436C61.7443 421.7 -49.2556 464.1 25.6444 476.2C229.844 509.4 398.044 461.3 345.044 437.4ZM121.544 396C42.8443 418 169.444 463.4 269.644 420.5C259.844 416.7 250.444 412.1 241.444 406.7C196.744 415.2 176.044 415.8 135.444 411.2C101.944 407.4 121.544 396 121.544 396ZM301.344 493.2C222.644 508 125.544 506.3 68.0443 496.8C68.0443 496.7 79.8443 506.5 140.444 510.4C232.644 516.3 374.244 507.1 377.544 463.5C377.544 463.5 371.144 480 301.344 493.2ZM257.744 353C198.544 364.4 164.244 364.1 120.944 359.6C87.4443 356.1 109.344 339.9 109.344 339.9C22.5443 368.7 157.544 401.3 278.844 365.8C271.044 363 263.844 358.7 257.744 353Z" fill="white"/>
</svg>
