<svg width="640" height="392" viewBox="0 0 640 392" fill="none" xmlns="http://www.w3.org/2000/svg">
<path d="M316.3 391.985C314.2 391.985 312.1 391.385 310.2 390.385L291 378.985C288.1 377.385 289.5 376.785 290.5 376.485C294.3 375.185 295.1 374.885 299.2 372.485C299.6 372.285 300.2 372.385 300.6 372.585L315.4 381.385C315.9 381.685 316.7 381.685 317.2 381.385L375 347.985C375.5 347.685 375.9 347.085 375.9 346.385V279.685C375.9 278.985 375.6 278.385 375 278.085L317.2 244.785C316.7 244.485 316 244.485 315.4 244.785L257.6 278.085C257 278.385 256.7 279.085 256.7 279.685V346.385C256.7 346.985 257.1 347.585 257.6 347.885L273.4 356.985C282 361.285 287.3 356.185 287.3 351.185V285.285C287.3 284.385 288 283.585 289 283.585H296.3C297.2 283.585 298 284.285 298 285.285V351.185C298 362.685 291.8 369.185 280.9 369.185C277.6 369.185 274.9 369.185 267.6 365.585L252.4 356.885C248.7 354.685 246.3 350.685 246.3 346.385V279.685C246.3 275.385 248.6 271.285 252.4 269.185L310.2 235.785C313.9 233.685 318.7 233.685 322.3 235.785L380.1 269.185C383.8 271.385 386.2 275.385 386.2 279.685V346.385C386.2 350.685 383.9 354.785 380.1 356.885L322.3 390.285C320.6 391.385 318.5 391.985 316.3 391.985ZM363 326.185C363 313.685 354.6 310.385 336.8 307.985C318.8 305.585 317 304.385 317 300.185C317 296.685 318.5 292.085 331.8 292.085C343.7 292.085 348.1 294.685 349.9 302.685C350.1 303.485 350.7 303.985 351.5 303.985H359C359.5 303.985 359.9 303.785 360.2 303.485C360.5 303.085 360.7 302.685 360.6 302.185C359.4 288.385 350.3 281.985 331.8 281.985C315.3 281.985 305.5 288.985 305.5 300.585C305.5 313.285 315.3 316.685 331.1 318.285C350 320.185 351.5 322.885 351.5 326.585C351.5 333.085 346.3 335.785 334.1 335.785C318.8 335.785 315.4 331.985 314.3 324.385C314.2 323.585 313.5 322.985 312.6 322.985H305.1C304.2 322.985 303.4 323.685 303.4 324.685C303.4 334.385 308.7 345.985 334 345.985C352.5 345.985 363 338.785 363 326.185ZM417.5 276.085C417.5 282.185 412.5 287.185 406.4 287.185C400.3 287.185 395.3 282.185 395.3 276.085C395.3 269.785 400.5 264.985 406.4 264.985C412.4 264.885 417.5 269.785 417.5 276.085ZM415.7 276.085C415.7 270.885 411.5 266.785 406.3 266.785C401.2 266.785 397 270.885 397 276.085C397 281.285 401.2 285.485 406.3 285.485C411.5 285.385 415.7 281.185 415.7 276.085ZM411.2 282.285H408.6C408.5 281.685 408.1 278.485 408.1 278.385C407.9 277.685 407.7 277.285 406.8 277.285H404.6V282.285H402.2V269.785H406.5C408 269.785 410.9 269.785 410.9 273.085C410.9 275.385 409.4 275.885 408.5 276.185C410.2 276.285 410.3 277.385 410.6 278.985C410.7 279.985 410.9 281.685 411.2 282.285ZM408.4 273.485C408.4 271.785 407.2 271.785 406.6 271.785H404.6V275.285H406.5C408.1 275.285 408.4 274.185 408.4 273.485ZM137.3 130.985C137.3 128.285 135.9 125.885 133.6 124.585L72.3 89.2855C71.3 88.6855 70.1 88.3855 68.9 88.2855H68.3C67.1 88.2855 66 88.6855 64.9 89.2855L3.7 124.585C1.4 125.885 0 128.385 0 130.985L0.1 225.985C0.1 227.285 0.8 228.485 1.9 229.185C3 229.885 4.4 229.885 5.6 229.185L42 208.285C44.3 206.885 45.7 204.485 45.7 201.885V157.485C45.7 154.885 47.1 152.385 49.4 151.085L64.9 142.185C66.1 141.485 67.3 141.185 68.6 141.185C69.9 141.185 71.2 141.485 72.3 142.185L87.8 151.085C90.1 152.385 91.5 154.885 91.5 157.485V201.885C91.5 204.485 92.9 206.985 95.2 208.285L131.6 229.185C132.7 229.885 134.2 229.885 135.3 229.185C136.4 228.585 137.1 227.285 137.1 225.985L137.3 130.985ZM472.5 27.2855V203.685C472.5 206.285 471.1 208.785 468.8 210.085L407.5 245.485C405.2 246.785 402.4 246.785 400.1 245.485L338.8 210.085C336.5 208.785 335.1 206.285 335.1 203.685V132.885C335.1 130.285 336.5 127.785 338.8 126.485L400.1 91.0855C402.4 89.7855 405.2 89.7855 407.5 91.0855L422.8 99.8855C424.5 100.885 426.7 99.5855 426.7 97.6855V3.68547C426.7 0.885474 429.7 -0.914523 432.2 0.485477L468.7 20.8855C471 22.0855 472.5 24.5855 472.5 27.2855ZM426.5 156.185C426.5 155.485 426.1 154.885 425.6 154.585L404.6 142.385C404 142.085 403.3 142.085 402.7 142.385L381.7 154.585C381.1 154.885 380.8 155.485 380.8 156.185V180.485C380.8 181.185 381.2 181.785 381.7 182.085L402.7 194.185C403.3 194.485 404 194.485 404.5 194.185L425.5 182.085C426.1 181.785 426.4 181.185 426.4 180.485V156.185H426.5ZM636.3 155.485C638.6 154.185 640 151.685 640 149.085V131.985C640 129.385 638.6 126.885 636.3 125.585L575.4 90.1855C573.1 88.8855 570.3 88.8855 568 90.1855L506.7 125.585C504.4 126.885 503 129.385 503 131.985V202.785C503 205.485 504.4 207.885 506.7 209.185L567.6 243.885C569.8 245.185 572.6 245.185 574.9 243.885L611.7 223.385C614.2 221.985 614.2 218.385 611.7 216.985L550 181.585C548.8 180.885 548.1 179.685 548.1 178.385V156.185C548.1 154.885 548.8 153.685 550 152.985L569.2 141.885C570.3 141.185 571.8 141.185 572.9 141.885L592.1 152.985C593.2 153.685 594 154.885 594 156.185V173.585C594 176.385 597.1 178.185 599.6 176.785L636.3 155.485ZM559 158.985C558.6 159.285 558.3 159.685 558.3 160.185V173.785C558.3 174.285 558.6 174.785 559 174.985L570.8 181.785C571.2 182.085 571.8 182.085 572.2 181.785L584 174.985C584.4 174.685 584.7 174.285 584.7 173.785V160.185C584.7 159.685 584.4 159.185 584 158.985L572.2 152.185C571.8 151.885 571.2 151.885 570.8 152.185L559 158.985ZM304.8 202.485V132.085C304.8 129.485 303.2 126.985 300.9 125.685L239.8 90.4855C237.7 89.2855 234.8 89.0855 232.4 90.4855L171.3 125.685C169 126.985 167.4 129.385 167.4 132.085V202.485C167.4 205.285 169.3 207.685 171.4 208.885L232.6 244.085C235 245.485 237.8 245.385 240 244.085L301 208.885C302.8 207.885 304.1 206.185 304.6 204.185C304.7 203.685 304.8 203.085 304.8 202.485ZM230.5 77.5855L229.7 78.0855H230.8L230.5 77.5855ZM306.7 207.785L306.3 207.085V207.985L306.7 207.785Z" fill="white"/>
</svg>
